<?xml version="1.0" encoding="utf-8"?>
<!-- Generator: Adobe Illustrator 27.5.0, SVG Export Plug-In . SVG Version: 6.00 Build 0)  -->
<svg version="1.1" id="Capa_1" xmlns="http://www.w3.org/2000/svg" xmlns:xlink="http://www.w3.org/1999/xlink" x="0px" y="0px"
	 viewBox="0 0 25 25" style="enable-background:new 0 0 25 25;" xml:space="preserve">
<style type="text/css">
	.st0{fill:#7065F0;}
	.st1{fill:#FFFFFF;}
</style>
<path class="st0" d="M23,6.7l-7.3-5.7c-1.8-1.4-4.6-1.4-6.4,0L2,6.7C1.4,7.2,0.9,7.9,0.5,8.6C0.2,9.3,0,10.1,0,10.8v9.9
	c0,1.1,0.4,2.2,1.3,3c0.8,0.8,1.9,1.3,3,1.3h16.4c1.1,0,2.2-0.5,3-1.3c0.8-0.8,1.3-1.9,1.3-3v-9.9C25,9.2,24.3,7.7,23,6.7z"/>
<path class="st1" d="M19,10.5c-0.6-0.1-1.1,0.2-1.5,0.6c-0.1,0.1-2.1,2.6-4.8,2.7c-1.7,0-3.5-1-5.2-3c-0.3-0.3-0.7-0.6-1.2-0.6
	c-0.9-0.1-1.8,0.6-1.8,1.5c0,0.5,0.1,0.9,0.4,1.3c2.4,2.8,5,4.3,7.8,4.2c4.2-0.1,7-3.5,7.4-3.9c0,0,0,0,0,0l0,0
	c0.2-0.3,0.3-0.6,0.4-0.9C20.6,11.4,19.9,10.5,19,10.5z"/>
</svg>
